<?xml version="1.0" encoding="UTF-8" standalone="no"?>
<!DOCTYPE svg PUBLIC "-//W3C//DTD SVG 1.1//EN"
 "http://www.w3.org/Graphics/SVG/1.1/DTD/svg11.dtd">
<!-- Generated by graphviz version 2.30.1 (20150306.0020)
 -->
<!-- Title: G Pages: 1 -->
<svg width="323pt" height="124pt"
 viewBox="0.00 0.00 322.98 123.98" xmlns="http://www.w3.org/2000/svg" xmlns:xlink="http://www.w3.org/1999/xlink">
<g id="graph0" class="graph" transform="scale(1 1) rotate(0) translate(7.992 115.992)">
<title>G</title>
<polygon fill="#000000" stroke="#000000" points="-7.992,8.992 -7.992,-115.992 315.992,-115.992 315.992,8.992 -7.992,8.992"/>
<!-- ../utils/is&#45;function -->
<g id="node1" class="node"><title>../utils/is&#45;function</title>
<ellipse fill="none" stroke="#cfffac" cx="78" cy="-18" rx="78.4642" ry="18"/>
<text text-anchor="middle" x="78" y="-14.3" font-family="Arial" font-size="14.00" fill="#cfffac">../utils/is&#45;function</text>
</g>
<!-- ../utils/zero&#45;fill -->
<g id="node2" class="node"><title>../utils/zero&#45;fill</title>
<ellipse fill="none" stroke="#cfffac" cx="241" cy="-18" rx="65.9423" ry="18"/>
<text text-anchor="middle" x="241" y="-14.3" font-family="Arial" font-size="14.00" fill="#cfffac">../utils/zero&#45;fill</text>
</g>
<!-- format -->
<g id="node3" class="node"><title>format</title>
<ellipse fill="none" stroke="#c6c5fe" cx="159" cy="-90" rx="37.0701" ry="18"/>
<text text-anchor="middle" x="159" y="-86.3" font-family="Arial" font-size="14.00" fill="#c6c5fe">format</text>
</g>
<!-- format&#45;&gt;../utils/is&#45;function -->
<g id="edge1" class="edge"><title>format&#45;&gt;../utils/is&#45;function</title>
<path fill="none" stroke="#757575" d="M141.424,-73.811C130.737,-64.5753 116.875,-52.5953 104.836,-42.192"/>
<polygon fill="#757575" stroke="#757575" points="107.095,-39.5184 97.2408,-35.6278 102.518,-44.8147 107.095,-39.5184"/>
</g>
<!-- format&#45;&gt;../utils/zero&#45;fill -->
<g id="edge2" class="edge"><title>format&#45;&gt;../utils/zero&#45;fill</title>
<path fill="none" stroke="#757575" d="M176.793,-73.811C187.689,-64.5093 201.846,-52.424 214.093,-41.9693"/>
<polygon fill="#757575" stroke="#757575" points="216.479,-44.5348 221.812,-35.3801 211.934,-39.2108 216.479,-44.5348"/>
</g>
</g>
</svg>
