<?xml version="1.0" encoding="UTF-8" standalone="no"?>
<!DOCTYPE svg PUBLIC "-//W3C//DTD SVG 1.1//EN"
 "http://www.w3.org/Graphics/SVG/1.1/DTD/svg11.dtd">
<!-- Generated by graphviz version 2.30.1 (20150306.0020)
 -->
<!-- Title: G Pages: 1 -->
<svg width="680pt" height="196pt"
 viewBox="0.00 0.00 679.98 195.98" xmlns="http://www.w3.org/2000/svg" xmlns:xlink="http://www.w3.org/1999/xlink">
<g id="graph0" class="graph" transform="scale(1 1) rotate(0) translate(7.992 187.992)">
<title>G</title>
<polygon fill="#000000" stroke="#000000" points="-7.992,8.992 -7.992,-187.992 672.992,-187.992 672.992,8.992 -7.992,8.992"/>
<!-- ../utils/abs&#45;floor -->
<g id="node1" class="node"><title>../utils/abs&#45;floor</title>
<ellipse fill="none" stroke="#cfffac" cx="229" cy="-18" rx="73.1654" ry="18"/>
<text text-anchor="middle" x="229" y="-14.3" font-family="Arial" font-size="14.00" fill="#cfffac">../utils/abs&#45;floor</text>
</g>
<!-- ../utils/has&#45;own&#45;prop -->
<g id="node2" class="node"><title>../utils/has&#45;own&#45;prop</title>
<ellipse fill="none" stroke="#cfffac" cx="396" cy="-90" rx="92.413" ry="18"/>
<text text-anchor="middle" x="396" y="-86.3" font-family="Arial" font-size="14.00" fill="#cfffac">../utils/has&#45;own&#45;prop</text>
</g>
<!-- ../utils/is&#45;function -->
<g id="node3" class="node"><title>../utils/is&#45;function</title>
<ellipse fill="none" stroke="#cfffac" cx="586" cy="-90" rx="78.4642" ry="18"/>
<text text-anchor="middle" x="586" y="-86.3" font-family="Arial" font-size="14.00" fill="#cfffac">../utils/is&#45;function</text>
</g>
<!-- ../utils/is&#45;number -->
<g id="node4" class="node"><title>../utils/is&#45;number</title>
<ellipse fill="none" stroke="#cfffac" cx="77" cy="-90" rx="77.0154" ry="18"/>
<text text-anchor="middle" x="77" y="-86.3" font-family="Arial" font-size="14.00" fill="#cfffac">../utils/is&#45;number</text>
</g>
<!-- ../utils/to&#45;int -->
<g id="node5" class="node"><title>../utils/to&#45;int</title>
<ellipse fill="none" stroke="#c6c5fe" cx="229" cy="-90" rx="56.3173" ry="18"/>
<text text-anchor="middle" x="229" y="-86.3" font-family="Arial" font-size="14.00" fill="#c6c5fe">../utils/to&#45;int</text>
</g>
<!-- ../utils/to&#45;int&#45;&gt;../utils/abs&#45;floor -->
<g id="edge1" class="edge"><title>../utils/to&#45;int&#45;&gt;../utils/abs&#45;floor</title>
<path fill="none" stroke="#757575" d="M229,-71.6966C229,-63.9827 229,-54.7125 229,-46.1124"/>
<polygon fill="#757575" stroke="#757575" points="232.5,-46.1043 229,-36.1043 225.5,-46.1044 232.5,-46.1043"/>
</g>
<!-- regex -->
<g id="node6" class="node"><title>regex</title>
<ellipse fill="none" stroke="#c6c5fe" cx="491" cy="-162" rx="34.1708" ry="18"/>
<text text-anchor="middle" x="491" y="-158.3" font-family="Arial" font-size="14.00" fill="#c6c5fe">regex</text>
</g>
<!-- regex&#45;&gt;../utils/has&#45;own&#45;prop -->
<g id="edge2" class="edge"><title>regex&#45;&gt;../utils/has&#45;own&#45;prop</title>
<path fill="none" stroke="#757575" d="M471.775,-146.834C458.904,-137.35 441.677,-124.657 426.901,-113.769"/>
<polygon fill="#757575" stroke="#757575" points="428.663,-110.72 418.536,-107.606 424.511,-116.355 428.663,-110.72"/>
</g>
<!-- regex&#45;&gt;../utils/is&#45;function -->
<g id="edge3" class="edge"><title>regex&#45;&gt;../utils/is&#45;function</title>
<path fill="none" stroke="#757575" d="M510.225,-146.834C523.187,-137.283 540.566,-124.478 555.411,-113.54"/>
<polygon fill="#757575" stroke="#757575" points="557.831,-116.104 563.805,-107.354 553.679,-110.468 557.831,-116.104"/>
</g>
<!-- token -->
<g id="node7" class="node"><title>token</title>
<ellipse fill="none" stroke="#c6c5fe" cx="229" cy="-162" rx="33.2209" ry="18"/>
<text text-anchor="middle" x="229" y="-158.3" font-family="Arial" font-size="14.00" fill="#c6c5fe">token</text>
</g>
<!-- token&#45;&gt;../utils/has&#45;own&#45;prop -->
<g id="edge4" class="edge"><title>token&#45;&gt;../utils/has&#45;own&#45;prop</title>
<path fill="none" stroke="#757575" d="M254.364,-150.369C279.585,-139.797 318.853,-123.337 349.652,-110.427"/>
<polygon fill="#757575" stroke="#757575" points="351.043,-113.639 358.913,-106.545 348.337,-107.183 351.043,-113.639"/>
</g>
<!-- token&#45;&gt;../utils/is&#45;number -->
<g id="edge5" class="edge"><title>token&#45;&gt;../utils/is&#45;number</title>
<path fill="none" stroke="#757575" d="M204.579,-149.753C181.683,-139.209 146.961,-123.219 119.519,-110.581"/>
<polygon fill="#757575" stroke="#757575" points="120.694,-107.269 110.147,-106.265 117.766,-113.627 120.694,-107.269"/>
</g>
<!-- token&#45;&gt;../utils/to&#45;int -->
<g id="edge6" class="edge"><title>token&#45;&gt;../utils/to&#45;int</title>
<path fill="none" stroke="#757575" d="M229,-143.697C229,-135.983 229,-126.712 229,-118.112"/>
<polygon fill="#757575" stroke="#757575" points="232.5,-118.104 229,-108.104 225.5,-118.104 232.5,-118.104"/>
</g>
</g>
</svg>
