<?xml version="1.0" encoding="UTF-8" standalone="no"?>
<!DOCTYPE svg PUBLIC "-//W3C//DTD SVG 1.1//EN"
 "http://www.w3.org/Graphics/SVG/1.1/DTD/svg11.dtd">
<!-- Generated by graphviz version 2.30.1 (20150306.0020)
 -->
<!-- Title: G Pages: 1 -->
<svg width="1702pt" height="196pt"
 viewBox="0.00 0.00 1701.98 195.98" xmlns="http://www.w3.org/2000/svg" xmlns:xlink="http://www.w3.org/1999/xlink">
<g id="graph0" class="graph" transform="scale(1 1) rotate(0) translate(7.992 187.992)">
<title>G</title>
<polygon fill="#000000" stroke="#000000" points="-7.992,8.992 -7.992,-187.992 1694.99,-187.992 1694.99,8.992 -7.992,8.992"/>
<!-- abs&#45;ceil -->
<g id="node1" class="node"><title>abs&#45;ceil</title>
<ellipse fill="none" stroke="#cfffac" cx="42" cy="-162" rx="42.3456" ry="18"/>
<text text-anchor="middle" x="42" y="-158.3" font-family="Arial" font-size="14.00" fill="#cfffac">abs&#45;ceil</text>
</g>
<!-- abs&#45;floor -->
<g id="node2" class="node"><title>abs&#45;floor</title>
<ellipse fill="none" stroke="#cfffac" cx="178" cy="-18" rx="47.169" ry="18"/>
<text text-anchor="middle" x="178" y="-14.3" font-family="Arial" font-size="14.00" fill="#cfffac">abs&#45;floor</text>
</g>
<!-- abs&#45;round -->
<g id="node3" class="node"><title>abs&#45;round</title>
<ellipse fill="none" stroke="#cfffac" cx="323" cy="-162" rx="51.4931" ry="18"/>
<text text-anchor="middle" x="323" y="-158.3" font-family="Arial" font-size="14.00" fill="#cfffac">abs&#45;round</text>
</g>
<!-- compare&#45;arrays -->
<g id="node4" class="node"><title>compare&#45;arrays</title>
<ellipse fill="none" stroke="#c6c5fe" cx="178" cy="-162" rx="75.0904" ry="18"/>
<text text-anchor="middle" x="178" y="-158.3" font-family="Arial" font-size="14.00" fill="#c6c5fe">compare&#45;arrays</text>
</g>
<!-- to&#45;int -->
<g id="node5" class="node"><title>to&#45;int</title>
<ellipse fill="none" stroke="#c6c5fe" cx="178" cy="-90" rx="30.3206" ry="18"/>
<text text-anchor="middle" x="178" y="-86.3" font-family="Arial" font-size="14.00" fill="#c6c5fe">to&#45;int</text>
</g>
<!-- compare&#45;arrays&#45;&gt;to&#45;int -->
<g id="edge1" class="edge"><title>compare&#45;arrays&#45;&gt;to&#45;int</title>
<path fill="none" stroke="#757575" d="M178,-143.697C178,-135.983 178,-126.712 178,-118.112"/>
<polygon fill="#757575" stroke="#757575" points="181.5,-118.104 178,-108.104 174.5,-118.104 181.5,-118.104"/>
</g>
<!-- to&#45;int&#45;&gt;abs&#45;floor -->
<g id="edge7" class="edge"><title>to&#45;int&#45;&gt;abs&#45;floor</title>
<path fill="none" stroke="#757575" d="M178,-71.6966C178,-63.9827 178,-54.7125 178,-46.1124"/>
<polygon fill="#757575" stroke="#757575" points="181.5,-46.1043 178,-36.1043 174.5,-46.1044 181.5,-46.1043"/>
</g>
<!-- defaults -->
<g id="node6" class="node"><title>defaults</title>
<ellipse fill="none" stroke="#cfffac" cx="437" cy="-162" rx="43.319" ry="18"/>
<text text-anchor="middle" x="437" y="-158.3" font-family="Arial" font-size="14.00" fill="#cfffac">defaults</text>
</g>
<!-- deprecate -->
<g id="node7" class="node"><title>deprecate</title>
<ellipse fill="none" stroke="#c6c5fe" cx="551" cy="-162" rx="52.4675" ry="18"/>
<text text-anchor="middle" x="551" y="-158.3" font-family="Arial" font-size="14.00" fill="#c6c5fe">deprecate</text>
</g>
<!-- extend -->
<g id="node8" class="node"><title>extend</title>
<ellipse fill="none" stroke="#c6c5fe" cx="459" cy="-90" rx="38.0212" ry="18"/>
<text text-anchor="middle" x="459" y="-86.3" font-family="Arial" font-size="14.00" fill="#c6c5fe">extend</text>
</g>
<!-- deprecate&#45;&gt;extend -->
<g id="edge2" class="edge"><title>deprecate&#45;&gt;extend</title>
<path fill="none" stroke="#757575" d="M530.124,-145.116C517.216,-135.295 500.502,-122.577 486.519,-111.939"/>
<polygon fill="#757575" stroke="#757575" points="488.303,-108.898 478.225,-105.628 484.064,-114.468 488.303,-108.898"/>
</g>
<!-- hooks -->
<g id="node9" class="node"><title>hooks</title>
<ellipse fill="none" stroke="#cfffac" cx="551" cy="-90" rx="35.6194" ry="18"/>
<text text-anchor="middle" x="551" y="-86.3" font-family="Arial" font-size="14.00" fill="#cfffac">hooks</text>
</g>
<!-- deprecate&#45;&gt;hooks -->
<g id="edge3" class="edge"><title>deprecate&#45;&gt;hooks</title>
<path fill="none" stroke="#757575" d="M551,-143.697C551,-135.983 551,-126.712 551,-118.112"/>
<polygon fill="#757575" stroke="#757575" points="554.5,-118.104 551,-108.104 547.5,-118.104 554.5,-118.104"/>
</g>
<!-- is&#45;undefined -->
<g id="node10" class="node"><title>is&#45;undefined</title>
<ellipse fill="none" stroke="#cfffac" cx="666" cy="-90" rx="61.6163" ry="18"/>
<text text-anchor="middle" x="666" y="-86.3" font-family="Arial" font-size="14.00" fill="#cfffac">is&#45;undefined</text>
</g>
<!-- deprecate&#45;&gt;is&#45;undefined -->
<g id="edge4" class="edge"><title>deprecate&#45;&gt;is&#45;undefined</title>
<path fill="none" stroke="#757575" d="M575.67,-145.983C591.969,-136.063 613.559,-122.92 631.545,-111.973"/>
<polygon fill="#757575" stroke="#757575" points="633.853,-114.665 640.575,-106.476 630.213,-108.686 633.853,-114.665"/>
</g>
<!-- has&#45;own&#45;prop -->
<g id="node11" class="node"><title>has&#45;own&#45;prop</title>
<ellipse fill="none" stroke="#cfffac" cx="617" cy="-18" rx="66.4165" ry="18"/>
<text text-anchor="middle" x="617" y="-14.3" font-family="Arial" font-size="14.00" fill="#cfffac">has&#45;own&#45;prop</text>
</g>
<!-- extend&#45;&gt;has&#45;own&#45;prop -->
<g id="edge5" class="edge"><title>extend&#45;&gt;has&#45;own&#45;prop</title>
<path fill="none" stroke="#757575" d="M485.803,-77.1255C510.087,-66.3667 546.281,-50.3311 574.506,-37.8263"/>
<polygon fill="#757575" stroke="#757575" points="576.019,-40.9844 583.744,-33.7336 573.183,-34.5843 576.019,-40.9844"/>
</g>
<!-- index&#45;of -->
<g id="node12" class="node"><title>index&#45;of</title>
<ellipse fill="none" stroke="#cfffac" cx="666" cy="-162" rx="44.2946" ry="18"/>
<text text-anchor="middle" x="666" y="-158.3" font-family="Arial" font-size="14.00" fill="#cfffac">index&#45;of</text>
</g>
<!-- is&#45;array -->
<g id="node13" class="node"><title>is&#45;array</title>
<ellipse fill="none" stroke="#cfffac" cx="768" cy="-162" rx="39.9464" ry="18"/>
<text text-anchor="middle" x="768" y="-158.3" font-family="Arial" font-size="14.00" fill="#cfffac">is&#45;array</text>
</g>
<!-- is&#45;date -->
<g id="node14" class="node"><title>is&#45;date</title>
<ellipse fill="none" stroke="#cfffac" cx="865" cy="-162" rx="38.0212" ry="18"/>
<text text-anchor="middle" x="865" y="-158.3" font-family="Arial" font-size="14.00" fill="#cfffac">is&#45;date</text>
</g>
<!-- is&#45;function -->
<g id="node15" class="node"><title>is&#45;function</title>
<ellipse fill="none" stroke="#cfffac" cx="974" cy="-162" rx="52.4675" ry="18"/>
<text text-anchor="middle" x="974" y="-158.3" font-family="Arial" font-size="14.00" fill="#cfffac">is&#45;function</text>
</g>
<!-- is&#45;number -->
<g id="node16" class="node"><title>is&#45;number</title>
<ellipse fill="none" stroke="#cfffac" cx="1097" cy="-162" rx="51.4931" ry="18"/>
<text text-anchor="middle" x="1097" y="-158.3" font-family="Arial" font-size="14.00" fill="#cfffac">is&#45;number</text>
</g>
<!-- is&#45;object&#45;empty -->
<g id="node17" class="node"><title>is&#45;object&#45;empty</title>
<ellipse fill="none" stroke="#cfffac" cx="1241" cy="-162" rx="74.1402" ry="18"/>
<text text-anchor="middle" x="1241" y="-158.3" font-family="Arial" font-size="14.00" fill="#cfffac">is&#45;object&#45;empty</text>
</g>
<!-- is&#45;object -->
<g id="node18" class="node"><title>is&#45;object</title>
<ellipse fill="none" stroke="#cfffac" cx="1379" cy="-162" rx="46.2191" ry="18"/>
<text text-anchor="middle" x="1379" y="-158.3" font-family="Arial" font-size="14.00" fill="#cfffac">is&#45;object</text>
</g>
<!-- keys -->
<g id="node19" class="node"><title>keys</title>
<ellipse fill="none" stroke="#c6c5fe" cx="776" cy="-90" rx="29.3479" ry="18"/>
<text text-anchor="middle" x="776" y="-86.3" font-family="Arial" font-size="14.00" fill="#c6c5fe">keys</text>
</g>
<!-- keys&#45;&gt;has&#45;own&#45;prop -->
<g id="edge6" class="edge"><title>keys&#45;&gt;has&#45;own&#45;prop</title>
<path fill="none" stroke="#757575" d="M752.88,-78.8214C728.554,-68.1119 689.719,-51.0145 659.783,-37.8354"/>
<polygon fill="#757575" stroke="#757575" points="660.969,-34.5334 650.407,-33.7073 658.149,-40.94 660.969,-34.5334"/>
</g>
<!-- map -->
<g id="node20" class="node"><title>map</title>
<ellipse fill="none" stroke="#cfffac" cx="1472" cy="-162" rx="28.3955" ry="18"/>
<text text-anchor="middle" x="1472" y="-158.3" font-family="Arial" font-size="14.00" fill="#cfffac">map</text>
</g>
<!-- some -->
<g id="node21" class="node"><title>some</title>
<ellipse fill="none" stroke="#cfffac" cx="1553" cy="-162" rx="34.1708" ry="18"/>
<text text-anchor="middle" x="1553" y="-158.3" font-family="Arial" font-size="14.00" fill="#cfffac">some</text>
</g>
<!-- zero&#45;fill -->
<g id="node22" class="node"><title>zero&#45;fill</title>
<ellipse fill="none" stroke="#cfffac" cx="1646" cy="-162" rx="39.9464" ry="18"/>
<text text-anchor="middle" x="1646" y="-158.3" font-family="Arial" font-size="14.00" fill="#cfffac">zero&#45;fill</text>
</g>
</g>
</svg>
